<svg width="32" height="69" viewBox="0 0 32 69" fill="none" xmlns="http://www.w3.org/2000/svg">
<path d="M15.8261 0.396973L3.81396 34.5648L15.8261 68.7325C24.314 68.7325 31.2193 61.8272 31.2193 53.3393V15.7902C31.2193 7.30233 24.314 0.396973 15.8261 0.396973Z" fill="#012631"/>
<path d="M0.432419 15.7902V53.3393C0.432419 61.8272 7.33778 68.7325 15.8258 68.7325V0.396973C7.33778 0.396973 0.432419 7.30233 0.432419 15.7902Z" fill="#353A3D"/>
<path d="M15.8252 8.40503L12.1325 15.7902L15.8252 23.1755C19.9039 23.1755 23.2103 19.869 23.2103 15.7902C23.2103 11.7114 19.9038 8.40503 15.8252 8.40503Z" fill="#5AA811"/>
<path d="M8.44124 15.7902C8.44124 19.869 11.7478 23.1755 15.8266 23.1755V8.40503C11.7478 8.40503 8.44124 11.7114 8.44124 15.7902Z" fill="#76BF32"/>
<path d="M15.8252 27.1796L12.1325 34.5647L15.8252 41.9499C19.9038 41.9499 23.2103 38.6435 23.2103 34.5647C23.2103 30.486 19.9038 27.1796 15.8252 27.1796Z" fill="#FFAB37"/>
<path d="M8.44124 34.5647C8.44124 38.6435 11.7478 41.9499 15.8266 41.9499V27.1796C11.7478 27.1796 8.44124 30.486 8.44124 34.5647Z" fill="#FFCD37"/>
<path d="M15.8252 45.954L12.1325 53.3393L15.8252 60.7245C19.9039 60.7245 23.2103 57.4179 23.2103 53.3393C23.2103 49.2606 19.9038 45.954 15.8252 45.954Z" fill="#FF0037"/>
<path d="M8.44124 53.3393C8.44124 57.4181 11.7478 60.7245 15.8266 60.7245V45.954C11.7478 45.954 8.44124 49.2605 8.44124 53.3393Z" fill="#FF4437"/>
</svg>
